<svg width="101" height="101" viewBox="0 0 101 101" fill="none" xmlns="http://www.w3.org/2000/svg">
<path d="M50.5 101C78.3904 101 101 78.3904 101 50.5C101 22.6096 78.3904 0 50.5 0C22.6096 0 0 22.6096 0 50.5C0 78.3904 22.6096 101 50.5 101Z" fill="#A86464"/>
<path d="M80.7111 79.9707H20.2889V87.0792H80.7111V79.9707Z" fill="#5E5E5E"/>
<path d="M78.7859 81.896H22.2141V85.1541H78.7859V81.896Z" fill="white"/>
<path d="M50.5 13.9208C36.8754 13.9208 25.7684 25.0278 25.7684 38.6524V79.0821H75.0836V38.6524C75.0836 25.0278 64.1246 13.9208 50.5 13.9208Z" fill="#3F4759"/>
<path d="M50.5 13.9208C36.8754 13.9208 25.7684 25.0278 25.7684 38.6524V79.0821H75.0836V38.6524C75.0836 25.0278 64.1246 13.9208 50.5 13.9208Z" fill="#5E5E5E"/>
<path d="M73.8989 77.8973H26.9531V38.6524C26.9531 25.7682 37.4677 15.1055 50.5 15.1055C63.3842 15.1055 74.0469 25.6201 74.0469 38.6524V77.8973H73.8989ZM28.434 76.4163H72.4179V38.6524C72.4179 26.5087 62.4956 16.5864 50.3519 16.5864C38.2082 16.5864 28.2859 26.5087 28.2859 38.6524V76.4163H28.434Z" fill="white"/>
<path d="M57.9047 41.4662C51.8328 41.4662 47.0939 36.5791 47.0939 30.6554C47.0939 28.7301 47.5381 26.953 48.4267 25.324C44.8724 26.8049 42.5029 30.2111 42.5029 34.2096C42.5029 39.541 46.7977 43.8357 52.129 43.8357C54.6466 43.8357 56.868 42.9472 58.4971 41.4662C58.349 41.4662 58.0528 41.4662 57.9047 41.4662Z" fill="white"/>
<path d="M54.6467 30.2113L57.0161 29.4708L56.1276 31.8404L57.6085 33.9137L55.0909 33.7656L53.4619 35.8389L52.8695 33.3213L50.3519 32.4327L52.5733 31.0999V28.5823L54.6467 30.2113Z" fill="white"/>
<path d="M59.978 54.3503H40.7258C40.2815 54.3503 39.9853 54.0541 39.9853 53.6099C39.9853 53.1656 40.2815 52.8694 40.7258 52.8694H59.978C60.4223 52.8694 60.7185 53.1656 60.7185 53.6099C60.7185 54.0541 60.4223 54.3503 59.978 54.3503Z" fill="white"/>
<path d="M59.978 58.9413H40.7258C40.2815 58.9413 39.9853 58.6451 39.9853 58.2008C39.9853 57.7565 40.2815 57.4603 40.7258 57.4603H59.978C60.4223 57.4603 60.7185 57.7565 60.7185 58.2008C60.7185 58.6451 60.4223 58.9413 59.978 58.9413Z" fill="white"/>
<path d="M59.978 63.5322H40.7258C40.2815 63.5322 39.9853 63.236 39.9853 62.7917C39.9853 62.3475 40.2815 62.0513 40.7258 62.0513H59.978C60.4223 62.0513 60.7185 62.3475 60.7185 62.7917C60.7185 63.236 60.4223 63.5322 59.978 63.5322Z" fill="white"/>
</svg>
