<svg width="101" height="101" viewBox="0 0 101 101" fill="none" xmlns="http://www.w3.org/2000/svg">
<path d="M50.5 101C78.3904 101 101 78.3904 101 50.5C101 22.6096 78.3904 0 50.5 0C22.6096 0 0 22.6096 0 50.5C0 78.3904 22.6096 101 50.5 101Z" fill="#AE8A59"/>
<path d="M47.2419 78.0454C44.8724 81.3035 40.2815 82.3402 37.3197 80.1187C33.4692 77.1569 29.915 65.1612 24.5836 58.9413C20.2889 53.9061 15.846 49.4633 14.5132 41.3181C14.3651 40.8738 13.4765 39.541 12.8842 38.5044C11.9956 36.5791 12.4399 35.0982 13.6246 34.5058C14.8094 33.9134 16.2903 34.5058 17.1789 36.4311C17.327 36.283 17.327 36.2829 17.4751 36.1348C16.8827 35.5425 16.4384 34.9501 16.1422 34.2096C14.9575 31.9882 15.4017 30.2111 16.7346 29.4706C18.0674 28.7302 19.8446 29.3225 21.0293 31.5439C21.1774 31.8401 21.3255 32.1363 21.3255 32.2844C21.4736 32.1363 21.6217 32.1363 21.7698 31.9882C21.3255 31.3959 20.8812 30.8035 20.4369 30.2111C19.2522 27.9897 19.6965 26.2126 21.0293 25.4721C22.3622 24.7316 24.1393 25.324 25.324 27.5454C25.6202 28.1378 25.9164 28.8783 26.0645 29.6187C26.2126 29.6187 26.3607 29.4706 26.5088 29.4706C26.0645 28.7302 25.7683 27.9897 25.4721 27.2492C24.7317 24.8797 25.6202 23.1026 27.1012 22.6583C28.5821 22.214 30.2111 23.2507 30.9516 25.6202C31.2478 26.5087 31.2478 27.5454 31.2478 28.434C31.544 28.434 31.9883 28.434 32.2845 28.434C31.6921 27.3973 31.2478 26.2125 31.0997 24.8797C30.6554 21.7697 32.1364 19.6965 34.2097 19.5484C36.283 19.2522 38.2082 20.8812 38.5044 23.9912C38.8006 25.9164 38.3563 27.8416 37.6158 29.1745C42.2068 33.4692 41.7625 43.0953 40.7258 48.8709C39.0968 57.3123 42.2068 59.6818 46.2053 66.9384C48.2786 70.6407 49.9076 74.3431 47.2419 78.0454ZM53.7581 78.0454C56.1276 81.3035 60.7185 82.3402 63.6804 80.1187C67.5308 77.1569 71.0851 65.1612 76.4164 58.9413C80.7112 53.9061 85.154 49.4633 86.4868 41.3181C86.6349 40.8738 87.5235 39.541 88.1159 38.5044C89.0044 36.5791 88.5601 35.0982 87.3754 34.5058C86.1906 33.9134 84.7097 34.5058 83.8211 36.4311C83.673 36.283 83.673 36.2829 83.5249 36.1348C84.1173 35.5425 84.5616 34.9501 84.8578 34.2096C86.0425 31.9882 85.5983 30.2111 84.2654 29.4706C82.9326 28.7302 81.1554 29.3225 79.9707 31.5439C79.8226 31.8401 79.6745 32.1363 79.6745 32.2844C79.5264 32.1363 79.3783 32.1363 79.2302 31.9882C79.6745 31.3959 80.1188 30.8035 80.5631 30.2111C81.7478 27.9897 81.3035 26.2126 79.9707 25.4721C78.6379 24.7316 76.8607 25.324 75.676 27.5454C75.3798 28.1378 75.0836 28.8783 74.9355 29.6187C74.7874 29.6187 74.6393 29.4706 74.4912 29.4706C74.9355 28.7302 75.2317 27.9897 75.5279 27.2492C76.2684 24.8797 75.3798 23.1026 73.8988 22.6583C72.4179 22.214 70.7889 23.2507 70.0484 25.6202C69.7522 26.5087 69.7522 27.5454 69.7522 28.434C69.456 28.434 69.0117 28.434 68.7156 28.434C69.3079 27.3973 69.7522 26.2125 69.9003 24.8797C70.3446 21.7697 68.8636 19.6965 66.7903 19.5484C64.717 19.2522 62.7918 20.8812 62.4956 23.9912C62.1994 25.9164 62.6437 27.8416 63.3842 29.1745C58.7933 33.4692 59.0895 43.0953 60.2742 48.8709C61.9032 57.3123 58.7933 59.6818 54.7947 66.9384C52.7214 70.6407 51.0924 74.3431 53.7581 78.0454Z" fill="#F9EFCC"/>
<path d="M61.607 32.4325L56.1276 33.173L48.871 45.0205L56.1276 49.4633L63.3842 37.6158L61.607 32.4325ZM59.6818 35.6906C59.2375 35.3944 59.0894 34.9501 59.3856 34.5058C59.6818 34.0615 60.1261 33.9135 60.5704 34.2096C61.0147 34.5058 61.1628 34.9501 60.8666 35.3944C60.5704 35.8387 60.1261 35.9868 59.6818 35.6906Z" fill="white"/>
<path d="M68.2713 28.1378C67.6789 30.5073 65.4575 31.3959 63.5323 32.4325C62.1994 33.0249 60.5704 33.4692 59.6818 34.802C59.3856 35.2463 59.978 35.5425 60.2742 35.0982C60.8666 34.2097 61.9032 33.9135 62.7918 33.4692C63.8285 33.0249 64.8651 32.4325 65.9018 31.8402C67.3827 30.9516 68.4194 29.7669 68.8637 28.2859C69.1599 27.9897 68.4194 27.6935 68.2713 28.1378Z" fill="#3F4759"/>
<path d="M62.6437 28.434C62.4956 28.1378 62.4956 27.9897 62.3475 27.6935C61.4589 28.7301 60.8666 29.9149 60.4223 31.2477C60.2742 31.692 59.3856 33.9134 59.6818 34.5058C60.1261 33.0248 60.5704 31.5439 61.459 30.3592C61.7552 29.6187 62.0513 29.0263 62.6437 28.434Z" fill="#3F4759"/>
</svg>
