<svg width="182" height="53" viewBox="0 0 182 53" fill="none" xmlns="http://www.w3.org/2000/svg">
<g clip-path="url(#clip0_11_1975)">
<path d="M177.934 33.1709L174.976 20.6859L137.886 17.8707L122.36 0H47.6872L35.2417 17.9931L6.03792 19.2171L4.92891 23.746L2.95735 32.6813L2.83412 33.1709H0V39.6582H4.3128L6.03792 43.2079H25.3839C26.1232 48.7159 30.8057 53 36.5972 53C42.2654 53 47.0711 48.7159 47.8104 43.2079H137.27C138.009 48.7159 142.692 53 148.483 53C154.152 53 158.957 48.7159 159.697 43.2079H174.853L176.209 40.1478H182.123V33.0485H177.934V33.1709ZM102.768 2.44804H121.251L134.559 17.8707H102.768V2.44804ZM46.7014 5.87529L41.6493 17.9931H38.1991L46.7014 5.87529ZM6.90047 26.194H9.98104V30.2333H6.03792L6.90047 26.194ZM2.46446 37.2102V35.6189H18.237L17.4976 37.2102H2.46446ZM25.3839 40.7598H7.63981L7.0237 39.6582H18.9763L21.9336 33.1709H5.29858L5.4218 32.6813H12.4455V23.746H7.51659L8.00948 21.6651L35.981 20.4411H41.2796V31.7021C39.8009 30.9677 38.1991 30.6005 36.5972 30.6005C30.8057 30.6005 25.8768 35.0069 25.3839 40.7598ZM36.5972 50.552C31.7915 50.552 27.7251 46.6351 27.7251 41.739C27.7251 36.9654 31.6682 33.0485 36.5972 33.0485C41.5261 33.0485 45.346 36.9654 45.346 41.739C45.4692 46.6351 41.5261 50.552 36.5972 50.552ZM72.2085 40.7598H47.8104C47.564 37.6998 45.9621 34.8845 43.6209 33.0485V20.3187H72.0853V40.7598H72.2085ZM72.2085 17.8707H44.237L50.7678 2.44804H72.2085V17.8707ZM100.303 40.7598H74.673V20.3187H100.303V40.7598ZM100.303 17.8707H74.673V2.44804H100.303V17.8707ZM135.422 40.7598H102.768V20.3187H135.422V40.7598ZM174.73 30.2333H166.474L167.337 26.194H173.744L174.73 30.2333ZM148.36 50.552C143.555 50.552 139.611 46.6351 139.611 41.739C139.611 36.9654 143.555 33.0485 148.36 33.0485C153.166 33.0485 157.109 36.9654 157.109 41.739C157.232 46.6351 153.289 50.552 148.36 50.552ZM173.128 40.7598H159.697C159.204 35.0069 154.398 30.6005 148.483 30.6005C143.678 30.6005 139.488 33.6605 137.886 37.9446V20.4411L173.005 23.0115L173.128 23.6236H165.242L163.27 32.5589H175.1L175.223 33.0485H159.943L162.777 40.1478H173.251L173.128 40.7598ZM179.536 37.6998H164.626L163.763 35.4965H179.536V37.6998Z" fill="#F8F8F8"/>
<path d="M36.5972 35.1294C32.9005 35.1294 29.8199 38.1894 29.8199 41.8615C29.8199 45.5336 32.9005 48.5936 36.5972 48.5936C40.2938 48.5936 43.3744 45.5336 43.3744 41.8615C43.3744 38.067 40.2938 35.1294 36.5972 35.1294ZM36.5972 46.0232C34.2559 46.0232 32.2844 44.0647 32.2844 41.7391C32.2844 39.4135 34.2559 37.455 36.5972 37.455C38.9384 37.455 40.9099 39.4135 40.9099 41.7391C40.9099 44.0647 38.9384 46.0232 36.5972 46.0232Z" fill="#F8F8F8"/>
<path d="M148.36 35.1294C144.664 35.1294 141.583 38.1894 141.583 41.8615C141.583 45.5336 144.664 48.5936 148.36 48.5936C152.057 48.5936 155.137 45.5336 155.137 41.8615C155.137 38.067 152.18 35.1294 148.36 35.1294ZM148.36 46.0232C146.019 46.0232 144.047 44.0647 144.047 41.7391C144.047 39.4135 146.019 37.455 148.36 37.455C150.701 37.455 152.673 39.4135 152.673 41.7391C152.673 44.0647 150.825 46.0232 148.36 46.0232Z" fill="#F8F8F8"/>
<path d="M47.0711 23.746H50.7678C50.6446 23.746 50.3981 23.6236 50.3981 23.3788H52.8626C52.8626 22.1548 51.8768 21.298 50.7678 21.298H47.0711C45.8389 21.298 44.9763 22.2772 44.9763 23.3788H47.4408C47.4408 23.6236 47.3175 23.746 47.0711 23.746Z" fill="#F8F8F8"/>
<path d="M107.943 23.746H111.64C111.517 23.746 111.27 23.6236 111.27 23.3788H113.735C113.735 22.1548 112.749 21.298 111.64 21.298H107.943C106.711 21.298 105.848 22.2772 105.848 23.3788H108.313C108.19 23.6236 108.066 23.746 107.943 23.746Z" fill="#F8F8F8"/>
</g>
<defs>
<clipPath id="clip0_11_1975">
<rect width="182" height="53" fill="white"/>
</clipPath>
</defs>
</svg>
