<svg width="101" height="101" viewBox="0 0 101 101" fill="none" xmlns="http://www.w3.org/2000/svg">
<path d="M50.5 101C78.3904 101 101 78.3904 101 50.5C101 22.6096 78.3904 0 50.5 0C22.6096 0 0 22.6096 0 50.5C0 78.3904 22.6096 101 50.5 101Z" fill="#99AB87"/>
<path d="M22.5103 18.3636V29.6188L31.5439 18.3636H22.5103Z" fill="white"/>
<path d="M22.5103 70.1964C24.2874 66.4941 27.2493 63.088 32.4325 61.7551C35.5425 61.0147 38.0601 61.1627 39.8372 60.4222C42.9472 59.0894 44.2801 56.868 44.7244 54.3504C41.6144 52.4252 39.2449 49.019 38.5044 45.0205C38.5044 45.1686 38.5044 45.4648 38.6525 45.761C38.6525 45.9091 38.6525 45.9091 38.6525 46.0572V46.2053C38.6525 46.3534 38.8006 46.5014 38.8006 46.6495C38.9487 46.7976 38.9487 47.0938 39.0968 47.39C39.0968 47.39 34.9501 41.022 38.3563 32.5806C41.4663 24.8798 50.7962 23.3988 55.3871 25.6202C55.3871 25.6202 55.5352 25.6202 55.5352 25.7683C55.9795 25.9164 56.4237 26.0645 56.868 26.3607C58.2009 26.953 59.5337 27.6935 60.5704 28.7302C61.1627 29.3226 61.7551 29.7668 62.0513 30.3592C65.7537 35.2463 64.2727 44.4281 63.088 46.0572C62.1994 49.7595 59.8299 53.0176 56.7199 54.7947C57.1642 57.3123 58.349 59.3856 61.3108 60.7185C63.088 61.3108 65.6055 61.1627 68.5674 61.9032C73.7507 63.236 76.7126 66.6422 78.4897 70.3446V18.5117H37.4677L22.3622 37.3197V70.1964H22.5103Z" fill="white"/>
<path d="M63.3841 45.6128C63.3841 45.4647 63.3841 45.3167 63.5322 45.1686C63.3841 45.3167 63.3841 45.4647 63.3841 45.6128Z" fill="white"/>
<path d="M50.5 62.0513C50.6481 62.0513 50.648 62.0513 50.7961 62.0513C54.6466 62.0513 58.2008 61.4589 61.3108 60.4223C61.4589 60.4223 61.4589 60.4223 61.607 60.5704C58.6451 59.2375 57.4604 57.1642 57.0161 54.6466C55.239 55.6833 53.1656 56.2757 51.0923 56.2757C48.8709 56.2757 46.6495 55.6833 44.8724 54.4985C44.4281 57.0161 43.0953 59.2375 39.9853 60.5704C39.9853 60.5704 39.9853 60.5704 40.1334 60.5704C43.0953 61.459 46.6495 62.0513 50.5 62.0513Z" fill="#E0CEAC"/>
<path d="M57.0161 54.6467C60.1261 52.8696 62.3474 49.7596 63.3841 45.9092C63.3841 45.7611 63.5322 45.613 63.5322 45.4649C63.5322 45.3168 63.5322 45.1687 63.6803 45.0206C63.6803 44.8725 63.6803 44.7244 63.6803 44.7244C63.6803 44.5764 63.6803 44.4282 63.6803 44.2801C63.9765 41.6144 63.236 38.8007 62.1994 36.5793C61.1627 35.0983 59.8299 34.9502 55.5352 36.135C55.5352 36.135 55.5351 36.135 55.387 36.135C55.239 36.2831 55.0909 36.2831 55.0909 36.4312C54.9428 37.0236 55.5351 37.764 55.9794 38.2083C55.0909 38.9487 53.6099 38.2083 52.7214 37.9121C52.8695 38.3564 53.1657 39.245 53.6099 39.5412C52.5733 39.3931 51.5366 39.0969 50.5 38.5045C49.7595 38.0602 49.1671 37.6159 48.4267 37.1717C48.2786 37.0236 47.9824 36.8754 47.6862 36.7273C47.5381 36.7273 47.5381 36.7273 47.39 36.7273C41.4662 35.0983 41.0219 35.8388 39.6891 39.3931C39.2448 40.4297 39.0967 41.7626 38.9486 42.9473C38.9486 43.5397 38.6525 44.2801 38.6525 45.1687C39.3929 49.1672 41.7624 52.5734 44.8724 54.4986C46.6495 55.6834 48.8709 56.2757 51.0923 56.2757C53.1657 56.2757 55.0909 55.6834 57.0161 54.6467Z" fill="#F9EFCC"/>
<path d="M38.8006 46.3533C38.8006 46.5014 38.9487 46.6495 38.9487 46.7976C38.8006 46.6495 38.8006 46.5014 38.8006 46.3533Z" fill="#212434"/>
<path d="M61.4589 29.4707C62.6437 30.9516 63.236 33.0249 63.8284 34.8021C64.4208 37.0235 64.4208 41.1701 63.8284 44.4281C63.9765 43.5396 63.9765 42.9472 63.8284 42.3548C63.6803 41.1701 63.5322 39.8373 63.088 38.8006C62.6437 37.7639 62.3475 37.0235 62.0513 36.5792C63.236 38.9487 63.8284 41.7625 63.5322 44.28C63.5322 44.4281 63.5322 44.5763 63.5322 44.7244C63.5322 44.8724 63.5322 45.0205 63.5322 45.0205C63.5322 45.1686 63.5322 45.3167 63.3841 45.4648C63.3841 45.6129 63.3842 45.761 63.2361 45.9091C64.4208 44.2801 65.9017 35.2463 62.1994 30.2111C61.7551 29.6188 61.3108 29.1745 60.7184 28.5821C61.0146 28.8783 61.1627 29.1745 61.4589 29.4707Z" fill="#212434"/>
<path d="M38.8006 35.5426C39.393 33.7654 39.9853 31.6921 41.1701 30.2112C42.3548 28.7302 43.9839 27.8417 45.6129 27.1012C46.5014 26.6569 47.39 26.3608 48.4267 26.2127C48.5748 26.2127 48.5748 26.0646 48.7229 26.0646C49.6114 25.9165 50.6481 25.7684 51.5366 25.6203C53.0176 25.3241 54.3504 25.4722 55.6833 25.7684C55.6833 25.7684 55.5352 25.7684 55.5352 25.6203C50.9443 23.3989 41.6144 24.8798 38.5044 32.5807C35.0982 41.022 39.2449 47.3901 39.2449 47.3901C37.6158 44.7244 37.912 38.3564 38.8006 35.5426Z" fill="#212434"/>
<path d="M38.8006 43.0952C38.9487 41.9105 39.0968 40.5777 39.541 39.541C41.022 35.9867 41.4662 35.2463 47.2419 36.8753C47.39 36.8753 47.39 36.8753 47.5381 36.8753C47.0938 36.5791 46.6495 35.9867 47.2419 35.5424C47.0938 35.3944 47.0938 35.2463 46.9457 35.0982C45.4648 33.3211 46.0572 27.1011 48.2786 26.0645C47.39 26.2125 46.5015 26.5087 45.4648 26.953C43.8358 27.6935 42.2067 28.582 41.022 30.063C39.8372 31.5439 39.2448 33.6172 38.6525 35.3943C37.7639 38.3562 37.6158 44.5762 39.0967 47.39C38.9486 47.0938 38.9487 46.9457 38.8006 46.6495C38.8006 46.5014 38.6525 46.3533 38.6525 46.2052V46.0571C38.6525 45.909 38.6525 45.909 38.6525 45.7609C38.6525 45.4647 38.5044 45.3166 38.5044 45.0204C38.5044 44.28 38.6525 43.6876 38.8006 43.0952Z" fill="#212434"/>
<path d="M54.9428 36.4312C55.0909 36.4312 55.239 36.283 55.239 36.1349C55.0909 36.1349 55.0909 36.135 54.9428 36.2831C54.9428 36.2831 54.9428 36.2831 54.9428 36.4312Z" fill="#212434"/>
<path d="M51.5366 25.6201C50.6481 25.7682 49.6114 25.9164 48.7229 26.0645C48.5748 26.0645 48.5748 26.0645 48.4267 26.2126C46.2053 27.2492 45.4648 33.321 47.0938 35.2462C46.5014 33.7653 51.2405 32.8768 52.129 32.8768C53.4619 32.7287 55.5352 32.7287 56.868 33.4691C57.1642 33.6172 58.2009 34.3577 58.349 34.802C58.6451 35.9867 56.1275 35.6905 55.3871 35.9867C55.239 36.1348 55.0909 36.2829 55.0909 36.431C55.239 36.431 55.239 36.431 55.3871 36.2829C55.3871 36.2829 55.3871 36.2829 55.5352 36.2829C59.8299 35.0982 61.1627 35.0981 62.1994 36.7272C62.4956 37.3196 62.9399 38.06 63.2361 38.9486C63.6804 39.9852 63.8285 41.3181 63.9765 42.5029C63.9765 43.0953 64.1246 43.6876 63.9765 44.5762C64.717 41.4662 64.717 37.1715 63.9765 34.9501C63.3842 33.173 62.7918 31.0996 61.607 29.6187C61.3108 29.3225 61.1628 29.0263 60.8666 28.8782C59.8299 27.8416 58.4971 27.2492 57.1642 26.5087C56.7199 26.2125 56.2757 26.0644 55.8314 25.9163C54.3504 25.324 53.0176 25.324 51.5366 25.6201Z" fill="#212434"/>
<path d="M68.7155 61.7552C65.7537 61.0148 63.2361 61.1628 61.4589 60.5705C61.3108 60.5705 61.3108 60.5705 61.1627 60.4224C57.9047 61.459 54.3505 62.0514 50.6481 62.0514H50.5H50.3519C46.5015 62.0514 42.9472 61.459 39.8372 60.4224C39.8372 60.4224 39.8372 60.4224 39.6891 60.4224C37.912 61.1628 35.3944 60.8667 32.2844 61.7552C27.1012 63.0881 24.1393 66.4942 22.3622 70.1966V82.6364H78.4897V70.1966C77.0088 66.4942 73.8988 63.0881 68.7155 61.7552Z" fill="#212434"/>
<path d="M20.8812 84.2654H80.4149V16.7346H20.8812V84.2654ZM21.6217 30.6555L22.5103 29.6188V18.3637H31.544L32.2844 17.4751H38.3563L37.6158 18.3637H78.6378V70.1965V82.6364H22.5103V70.1965V37.1716L21.6217 38.2082V30.6555Z" fill="#212434"/>
<path d="M37.6158 18.3636L38.3563 17.475H32.2844L31.544 18.3636L22.5103 29.6187L21.6217 30.6554V38.2082L22.5103 37.1715L37.6158 18.3636Z" fill="#212434"/>
<path d="M55.239 35.8387C55.8314 35.3945 58.4971 35.8387 58.2009 34.654C58.0528 34.2097 57.1642 33.6173 56.7199 33.3211C55.3871 32.5807 53.4619 32.5807 51.981 32.7288C51.0924 32.8768 46.2053 33.6173 46.9458 35.0983C46.9458 35.2464 47.0938 35.3944 47.2419 35.5425C46.5015 35.9868 46.9458 36.4311 47.5381 36.8754C47.8343 37.0235 48.1305 37.1716 48.2786 37.3197C49.0191 37.764 49.6115 38.2082 50.3519 38.6525C51.2405 39.0968 52.4252 39.3929 53.4619 39.6891C53.1657 39.3929 52.7214 38.5044 52.5733 38.0601C53.4619 38.3563 54.9428 39.0968 55.8314 38.3563C55.3871 37.912 54.7947 37.1716 54.9428 36.5792V36.4311C55.0909 36.1349 55.0909 35.9868 55.239 35.8387Z" fill="#212434"/>
</svg>
