<svg width="101" height="101" viewBox="0 0 101 101" fill="none" xmlns="http://www.w3.org/2000/svg">
<path d="M50.5 101C78.3904 101 101 78.3904 101 50.5C101 22.6096 78.3904 0 50.5 0C22.6096 0 0 22.6096 0 50.5C0 78.3904 22.6096 101 50.5 101Z" fill="#787878"/>
<path d="M49.0191 76.2685C49.0191 76.1204 49.0191 74.6395 49.4634 73.3066C49.7595 72.5662 51.0924 70.7891 50.0557 69.7524C49.9076 69.6043 50.2038 69.6043 50.2038 69.6043C50.5 69.9005 50.9443 70.1967 51.2405 70.1967C52.5733 70.3448 53.9062 68.5676 54.2024 66.3462C54.4985 64.1248 53.61 62.0515 52.129 61.9034C51.8328 61.9034 51.5367 61.9034 51.2405 62.0515C51.0924 61.9034 50.9443 61.9034 51.0924 61.7553C52.2771 61.1629 50.6481 57.0163 50.6481 56.2758C50.6481 52.8697 54.3504 50.0559 58.9414 50.0559C63.5323 50.0559 67.2346 52.8697 67.2346 56.2758C67.2346 57.0163 65.6056 61.311 66.7903 61.7553C66.9384 61.7553 66.7903 61.9034 66.6422 62.0515C66.346 61.9034 66.0499 61.9034 65.7537 61.9034C64.4208 62.0515 63.3842 63.9767 63.6804 66.3462C63.9765 68.5676 65.3094 70.3448 66.6422 70.1967C67.0865 70.1967 67.3827 69.9005 67.6789 69.6043C67.827 69.7524 67.827 69.7524 67.827 69.7524C66.7903 70.7891 68.1232 72.5662 68.4194 73.3066C68.8636 74.4914 68.8636 76.1204 68.8636 76.2685C68.8636 80.119 64.4208 83.377 58.7933 83.377C58.7933 83.377 58.7933 83.377 58.6452 83.377H58.4971C53.4619 83.377 49.0191 80.267 49.0191 76.2685Z" fill="#765858"/>
<path d="M61.4589 66.0498C61.4589 65.9017 61.4589 65.9017 61.4589 66.0498C61.4589 65.9017 61.4589 65.9017 61.4589 66.0498C61.607 65.9017 61.607 65.7536 61.7551 65.7536C61.7551 65.7536 61.9032 65.6055 62.0513 65.6055C62.1994 65.6055 62.1994 65.6055 62.3475 65.6055C62.4956 65.6055 62.6437 65.6055 62.6437 65.6055C62.7918 65.6055 62.9399 65.7536 62.9399 65.7536C63.088 65.9017 63.088 65.9017 63.2361 66.0498L63.3842 66.1979C63.3842 66.1979 63.3842 66.346 63.5323 66.346C63.5323 66.4941 63.6804 66.6422 63.6804 66.7903C63.6804 66.9384 63.6804 67.0864 63.6804 67.2345C63.6804 67.5307 63.6804 67.8269 63.6804 68.1231C63.6804 68.4193 63.6804 68.7155 63.6804 69.0117C63.6804 69.3079 63.6804 69.604 63.6804 69.9002C63.6804 70.1964 63.6804 70.4926 63.8285 70.6407C63.8285 70.9369 63.9765 71.085 64.1246 71.2331C64.1246 71.3812 64.2727 71.3812 64.4208 71.5293H64.5689H64.717C64.8651 71.5293 65.0132 71.5293 65.1613 71.3812C65.3094 71.3812 65.3094 71.2331 65.4575 71.085C65.3094 71.085 65.0132 70.9369 65.0132 70.6407C65.0132 70.4926 65.1613 70.1964 65.4575 70.1964C65.6056 70.1964 65.9018 70.3445 65.9018 70.6407C65.9018 70.6407 65.9018 70.6407 65.9018 70.7888C65.9018 70.9369 65.9018 70.9369 65.7537 71.085C65.7537 71.085 65.7537 71.2331 65.6056 71.2331L65.4575 71.3812C65.3094 71.3812 65.3094 71.5293 65.1613 71.5293H65.0132H64.8651H64.717C64.717 71.5293 64.5689 71.5293 64.5689 71.3812C64.5689 71.3812 64.5689 71.3812 64.4208 71.3812L64.2727 71.2331C64.1246 71.085 63.9765 70.7888 63.8285 70.4926C63.6804 70.1964 63.6804 69.9002 63.6804 69.604C63.6804 69.3079 63.6804 69.0117 63.6804 68.7155C63.6804 68.4193 63.6804 68.1231 63.6804 67.8269C63.6804 67.5307 63.6804 67.2345 63.6804 66.9384C63.6804 66.6422 63.6804 66.346 63.5323 66.1979V66.0498V65.9017C63.5323 65.9017 63.5323 65.9017 63.3842 65.7536C63.2361 65.6055 63.088 65.6055 62.9399 65.6055C62.7918 65.6055 62.6437 65.6055 62.6437 65.7536C62.7918 65.7536 62.7918 65.9017 62.7918 66.0498C62.7918 66.1979 62.6437 66.4941 62.3475 66.4941C62.1994 66.4941 61.9032 66.346 61.9032 66.0498C61.4589 66.0498 61.4589 66.0498 61.4589 66.0498ZM56.868 66.0498C56.868 66.0498 56.868 65.9017 56.868 66.0498C56.868 65.9017 56.868 65.9017 56.868 66.0498C56.868 65.9017 56.868 65.9017 56.868 66.0498C56.72 65.9017 56.7199 65.7536 56.5718 65.7536C56.5718 65.7536 56.4238 65.6055 56.2757 65.6055C56.1276 65.6055 56.1276 65.6055 55.9795 65.4574C55.8314 65.4574 55.6833 65.4574 55.6833 65.4574C55.5352 65.4574 55.3871 65.6055 55.3871 65.6055C55.239 65.7536 55.239 65.7536 55.0909 65.9017L54.9428 66.0498C54.9428 66.0498 54.9428 66.1979 54.7947 66.1979C54.7947 66.346 54.6466 66.4941 54.6466 66.6422C54.6466 66.7903 54.6466 66.9384 54.6466 67.0865C54.6466 67.3826 54.6466 67.6788 54.6466 67.975C54.6466 68.2712 54.6466 68.5674 54.6466 68.8636C54.6466 69.1598 54.6466 69.456 54.6466 69.7521C54.6466 70.0483 54.6466 70.3445 54.4985 70.4926C54.4985 70.7888 54.3504 70.9369 54.2024 71.085C54.2024 71.2331 54.0543 71.2331 53.9062 71.2331H53.7581H53.61C53.4619 71.2331 53.3138 71.2331 53.1657 71.085C53.0176 71.085 53.0176 70.9369 52.8695 70.7888C53.0176 70.7888 53.3138 70.6407 53.3138 70.3445C53.3138 70.1964 53.1657 69.9002 52.8695 69.9002C52.7214 69.9002 52.4252 70.0483 52.4252 70.3445C52.4252 70.3445 52.4252 70.3445 52.4252 70.4926C52.4252 70.4926 52.4252 70.6407 52.5733 70.7888C52.5733 70.7888 52.5733 70.9369 52.7214 70.9369L52.8695 71.085C53.0176 71.085 53.0176 71.2331 53.1657 71.2331H53.3138H53.4619H53.61C53.61 71.2331 53.7581 71.2331 53.7581 71.085C53.7581 71.085 53.7581 71.085 53.9062 71.085L54.0543 70.9369C54.2023 70.7888 54.3504 70.4926 54.4985 70.1964C54.6466 69.9002 54.6466 69.604 54.6466 69.3079C54.6466 69.0117 54.6466 68.7155 54.6466 68.4193C54.6466 68.1231 54.6466 67.8269 54.6466 67.5307C54.6466 67.2346 54.6466 66.9384 54.6466 66.6422C54.6466 66.346 54.6466 66.0498 54.7947 65.9017V65.7536V65.6055C54.7947 65.6055 54.7947 65.6055 54.9428 65.4574C55.0909 65.3093 55.239 65.3093 55.3871 65.3093C55.5352 65.3093 55.6833 65.3093 55.6833 65.4574C55.5352 65.4574 55.5352 65.6055 55.5352 65.7536C55.5352 65.9017 55.6833 66.1979 55.9795 66.1979C56.1276 66.1979 56.4238 66.0498 56.4238 65.7536C57.0161 66.0498 56.868 66.0498 56.868 66.0498ZM58.349 82.3401C58.349 82.4882 58.349 82.6363 58.349 82.7844C58.349 83.3768 58.7933 83.9691 59.2375 83.9691C59.6818 83.9691 60.1261 83.5249 60.1261 82.7844C60.1261 82.6363 60.1261 82.4882 60.1261 82.3401C59.5337 78.6378 61.4589 75.3797 61.0147 74.195C60.5704 74.4911 59.978 74.6392 59.3856 74.6392C58.6452 74.6392 58.0528 74.4911 57.7566 74.195C57.1642 75.3797 58.9414 78.6378 58.349 82.3401ZM57.1642 63.8284L58.2009 36.431H60.2742L61.1628 63.8284C61.1628 63.9765 60.2742 64.1246 59.2375 64.1246C58.0528 64.1246 57.1642 63.9765 57.1642 63.8284Z" fill="#212434"/>
<path d="M59.0895 70.3447C60.1261 70.3447 61.0147 70.1967 61.7551 69.7524L61.1628 68.5676C60.5704 68.8638 59.8299 69.0119 59.0895 69.0119C58.349 69.0119 57.6085 68.8638 57.1642 68.7157L56.5718 70.0486C57.3123 70.1967 58.2009 70.3447 59.0895 70.3447Z" fill="#FBF5D9"/>
<path d="M56.7199 29.9149C56.868 29.9149 56.868 29.9149 57.0161 29.9149V30.3592H58.349V30.8035H57.0161V31.2478C56.868 31.2478 56.868 31.2478 56.7199 31.2478C56.2757 31.2478 55.8314 30.9516 55.8314 30.6554C55.6833 30.2111 56.1276 29.9149 56.7199 29.9149Z" fill="#534F52"/>
<path d="M56.7199 31.8402C56.868 31.8402 56.868 31.8402 57.0161 31.8402V32.2845H58.349V32.7288H57.0161V33.173C56.868 33.173 56.868 33.173 56.7199 33.173C56.2757 33.173 55.8314 32.8769 55.8314 32.5807C55.6833 32.1364 56.1276 31.8402 56.7199 31.8402Z" fill="#534F52"/>
<path d="M61.3109 30.9515C61.1628 30.9515 61.1628 30.9515 61.0147 30.9515V31.3958H59.6818V31.8401H61.0147V32.2844C61.1628 32.2844 61.1628 32.2844 61.3109 32.2844C61.7551 32.2844 62.1994 31.9882 62.1994 31.692C62.3475 31.0996 61.9032 30.9515 61.3109 30.9515Z" fill="#534F52"/>
<path d="M61.3109 32.7288C61.1628 32.7288 61.1628 32.7288 61.0147 32.7288V33.173H59.6818V33.6173H61.0147V34.0616C61.1628 34.0616 61.1628 34.0616 61.3109 34.0616C61.7551 34.0616 62.1994 33.7654 62.1994 33.4692C62.1994 33.173 61.9032 32.7288 61.3109 32.7288Z" fill="#534F52"/>
<path d="M57.4604 27.3974C57.6085 27.3974 57.9047 27.2493 57.9047 26.9531C57.9047 26.8051 58.0528 26.5089 58.2009 26.5089C58.349 26.5089 58.4971 26.3608 58.4971 26.0646V25.6203C58.4971 25.3241 58.6452 25.176 58.9414 25.176H59.3856C59.6818 25.176 59.8299 25.3241 59.8299 25.6203V26.0646C59.8299 26.3608 59.978 26.5089 60.1261 26.5089C60.2742 26.5089 60.4223 26.657 60.4223 26.9531C60.4223 27.1012 60.7185 27.3974 60.8666 27.3974C61.0147 27.3974 61.3109 27.5455 61.3109 27.8417V27.9898C61.3109 28.286 61.3109 28.4341 61.3109 28.4341C61.3109 28.4341 61.1628 28.5822 61.0147 28.7303C60.8666 28.8784 60.7185 29.0265 60.7185 29.1746C60.7185 29.1746 60.7185 29.1746 60.7185 29.3227C60.7185 30.0631 59.978 30.5074 59.2375 30.5074C58.349 30.5074 57.7566 29.915 57.7566 29.3227C57.7566 29.1746 57.7566 29.1746 57.7566 29.1746C57.7566 29.0265 57.6085 28.8784 57.4604 28.7303C57.3123 28.5822 57.1642 28.4341 57.1642 28.4341C57.1642 28.4341 57.1642 28.286 57.1642 27.9898V27.8417C57.0161 27.5455 57.3123 27.3974 57.4604 27.3974Z" fill="#9D3718"/>
<path d="M57.9047 35.8387C57.9047 36.1349 58.2009 36.4311 58.4971 36.4311H60.1261C60.4223 36.4311 60.7185 36.1349 60.7185 35.8387L60.5704 29.4707C60.5704 29.1745 60.2742 28.8783 59.978 28.8783H58.7932C58.4971 28.8783 58.2009 29.1745 58.2009 29.4707L57.9047 35.8387Z" fill="#9D3718"/>
<path d="M59.5337 28.8783H58.7933V36.283H59.5337V28.8783Z" fill="#212434"/>
<path d="M59.5684 29.3108L59.4204 29.3134L60.2179 74.7691L60.3659 74.7665L59.5684 29.3108Z" fill="#C0C0C0"/>
<path d="M59.3856 74.9357H59.5337L59.3856 29.3228V74.9357Z" fill="#C0C0C0"/>
<path d="M58.9414 74.9357L59.0895 29.3228H58.9414L58.7933 74.9357H58.9414Z" fill="#C0C0C0"/>
<path d="M58.2009 74.9357L58.7932 29.4708H58.6452L58.2009 74.9357Z" fill="#C0C0C0"/>
<path d="M48.4267 80.5629L48.7229 80.711L73.7507 32.5805L73.6026 32.4324L48.4267 80.5629Z" fill="#C0B8BE"/>
<path d="M47.5381 84.8578C47.6862 85.0059 47.8343 84.8578 47.9824 84.7097L75.2317 32.5807C75.3798 32.4326 75.2317 32.2845 75.0836 32.1364C74.9355 31.9883 74.7874 32.1364 74.6393 32.2845L47.39 84.4135C47.39 84.5616 47.39 84.7097 47.5381 84.8578Z" fill="#999999"/>
<path d="M73.1584 32.5806L74.6393 33.173L75.0836 32.1364L73.7507 31.2478L73.1584 32.5806Z" fill="#999999"/>
<path d="M49.2699 78.5749L48.2425 80.5444L49.5555 81.2294L50.5829 79.2599L49.2699 78.5749Z" fill="#999999"/>
<path d="M40.4296 78.6379L40.5777 78.1936L42.5029 79.0821L42.7991 78.6379L42.5029 78.4898L44.5763 74.6393H44.7243L45.0205 74.0469L43.0953 73.1584L43.2434 72.7141L45.761 73.7508L45.1686 74.9355H45.3167L43.3915 78.934L43.2434 78.7859L42.7991 79.6745L40.4296 78.6379Z" fill="#EDE35F"/>
<path d="M23.695 45.9089C24.5836 46.3532 25.7683 47.0937 26.805 48.5746C28.434 51.0922 28.8783 54.6465 28.1378 59.2374C27.9897 59.8298 27.9897 60.4221 27.8417 61.0145C27.8417 61.755 27.6936 62.3474 27.5455 63.0878C27.3974 63.6802 27.2493 64.4207 27.1012 65.1611L26.805 66.1978L26.2126 68.4192C26.2126 68.5673 26.0645 68.8635 26.0645 69.0116L25.9164 69.604C25.9164 69.7521 25.7683 70.0482 25.7683 70.1963C25.7683 70.3444 25.6202 70.6406 25.6202 70.7887V70.9368C25.6202 70.9368 25.6202 70.9368 25.6202 71.0849L25.4722 71.5292C25.3241 71.9735 25.3241 72.2697 25.3241 72.7139C25.3241 73.4544 25.4722 74.343 25.7683 75.0834C26.0645 75.8239 26.5088 76.5644 27.1012 77.1568C27.6936 77.7491 28.2859 78.3415 29.0264 78.7858C29.7669 79.2301 30.5073 79.5262 31.3959 79.8224C31.3959 79.8224 31.3959 79.8224 31.544 79.8224C32.2845 79.9705 34.0616 80.4148 34.9502 80.4148C35.0983 80.4148 35.3944 80.4148 35.5425 80.4148H35.6906C35.8387 80.4148 35.8387 80.4148 35.8387 80.4148C35.8387 80.4148 35.9868 80.4148 36.1349 80.4148H36.4311C36.5792 80.4148 36.5792 80.4148 36.5792 80.4148C36.8754 80.4148 37.0235 80.2667 37.3197 80.2667C37.7639 80.1186 38.2082 79.9705 38.6525 79.8224C38.9487 79.6743 39.393 79.3782 39.6892 79.2301C40.2815 78.7858 40.7258 78.3415 41.1701 77.7491C41.4663 77.3048 41.9106 76.8606 42.2068 76.2682C42.5029 75.8239 42.651 75.3796 42.9472 74.7872C43.3915 73.8987 43.6877 73.0101 43.9839 71.9735C43.9839 71.6773 44.132 71.5292 44.132 71.233L44.2801 70.9368L44.4282 70.6406C44.5763 70.1963 44.5763 69.7521 44.7243 69.3078L45.3167 66.6421L46.5015 61.1626C47.8343 54.2022 48.871 44.7242 50.2038 38.2081C50.9443 34.3576 51.8329 27.8415 54.2024 20.4368C54.2024 20.2887 54.3504 20.1406 54.3504 19.9925V19.8444C54.4985 19.6963 54.6467 19.5482 54.6467 19.5482C54.9428 19.4001 55.3871 19.252 55.6833 19.104C56.1276 18.9559 56.5719 18.9559 57.0161 19.104C57.4604 19.104 57.9047 19.2521 58.2009 19.4002C58.349 19.5483 58.4971 19.5482 58.6452 19.6963L59.0895 19.9925C60.1261 20.733 61.0147 21.3254 61.7551 21.7696C62.4956 22.2139 63.3842 22.6582 64.2728 22.9544C64.8651 23.1025 65.3094 23.2506 65.9018 23.5468C66.0499 23.5468 66.0499 23.5468 66.198 23.6949C66.7903 23.843 67.0865 23.843 67.3827 23.9911L68.5675 24.2872L69.0117 21.7696L67.827 21.4735C67.5308 21.4735 67.2346 21.3254 66.7903 21.1773C66.0499 20.8811 64.717 20.5849 63.3842 19.6963C62.6437 19.2521 62.0513 18.8078 61.1628 18.0673L60.5704 17.623C60.5704 17.623 60.4223 17.623 60.4223 17.4749C60.1261 17.1787 59.8299 17.0306 59.3856 16.8825C58.6452 16.5864 57.9047 16.2902 57.0161 16.1421C56.1276 15.994 55.239 15.994 54.4985 16.1421C53.4619 16.2902 52.5733 16.5864 51.8329 17.0306C51.3886 17.3268 51.0924 17.623 50.7962 17.9192C50.7962 17.9192 50.7962 17.9192 50.6481 18.0673V18.2154L50.5 18.3635C50.5 18.3635 50.5 18.3635 50.5 18.5116C50.5 18.5116 50.5 18.6597 50.3519 18.6597V18.8078C50.2038 18.9559 50.2038 19.104 50.2038 19.4002C49.9076 20.1406 49.7596 20.733 49.4634 21.3254C49.0191 22.6582 48.5748 24.1391 48.2786 25.472C47.8343 26.8048 47.5381 28.1377 47.0939 29.9148C46.3534 32.5805 45.4648 35.6905 44.5763 39.3928C42.7991 45.909 41.022 52.8694 39.2449 59.6817L39.0968 60.5702L37.912 65.3092L37.1716 67.8268C37.0235 68.2711 36.8754 68.7154 36.8754 69.0116L36.7273 69.604C36.7273 69.7521 36.5792 70.0482 36.5792 70.1963C36.283 71.0849 35.9868 71.8254 35.6906 72.4177C35.3944 73.1582 34.9502 73.6025 34.654 74.0468C34.5059 74.1949 34.3578 74.343 34.2097 74.4911H34.0616H33.9135H33.7654C33.6173 74.4911 33.4692 74.4911 33.3211 74.4911C33.173 74.4911 32.8768 74.343 32.8768 74.1949L32.7288 74.0468C32.7288 73.8987 32.7288 73.8987 32.7288 73.8987H32.5807H32.7288L32.8768 73.4544V73.3063C32.8768 73.1582 32.8768 73.1582 33.0249 73.0101C33.0249 72.862 33.173 72.7139 33.173 72.4177L33.3211 71.8254C33.3211 71.6773 33.4692 71.5292 33.4692 71.233C33.6173 70.7887 33.7654 70.4925 33.9135 70.1963L34.3578 68.8635L34.654 67.9749C34.9502 67.2345 36.8754 60.2741 37.1716 59.3855C39.0968 50.3518 38.6525 45.1685 38.2082 39.689V39.3928C36.283 40.4295 33.7654 41.7623 31.0997 42.9471C28.434 43.9837 25.7683 45.0204 23.695 45.9089Z" fill="#F0CB7B"/>
<g opacity="0.5">
<path d="M47.9824 33.7653C47.9824 33.7653 48.1305 33.321 48.4267 32.5806C48.7229 31.8401 49.0191 30.8034 49.4634 29.4706C49.9076 28.1377 50.3519 26.6568 50.7962 25.0278C51.0924 24.1392 51.2405 23.3987 51.5367 22.5102C51.8329 21.6216 51.9809 20.7331 52.2771 19.9926C52.5733 19.2521 53.1657 18.5116 53.9062 18.0674C54.0543 17.9193 54.3505 17.9193 54.4985 17.7712H54.6466H54.7947L55.0909 17.6231L55.3871 17.475C55.5352 17.475 55.5352 17.475 55.6833 17.475C55.8314 17.475 56.1276 17.475 56.2757 17.475C57.1642 17.475 58.0528 17.7712 58.7933 18.2155C59.5337 18.6597 60.2742 19.104 60.8666 19.5483C61.459 19.9926 62.0513 20.4369 62.6437 20.7331C63.2361 21.0292 63.6804 21.3254 64.1246 21.4735C64.2727 21.6216 64.5689 21.6216 64.717 21.7697C64.8651 21.7697 65.0132 21.9178 65.1613 21.9178C65.4575 21.9178 65.6056 22.0659 65.6056 22.0659C65.7537 22.0659 65.9018 22.0659 65.9018 21.9178C65.9018 21.7697 65.9018 21.6216 65.7537 21.6216C65.7537 21.6216 65.6056 21.6216 65.4575 21.4735C65.3094 21.4735 65.1613 21.3254 65.0132 21.3254C64.8651 21.1773 64.717 21.1773 64.4208 21.0292C63.9765 20.8811 63.5323 20.585 63.088 20.1407C62.6437 19.8445 62.0513 19.4002 61.459 18.9559C60.8666 18.5117 60.1261 17.9193 59.3856 17.475C58.6452 17.0307 57.6085 16.5864 56.4238 16.5864C56.1276 16.5864 55.8314 16.5864 55.5352 16.5864C55.3871 16.5864 55.239 16.5864 55.0909 16.5864L54.7947 16.7345L54.4985 16.8826H54.3504C54.2023 16.8826 54.3504 16.8826 54.3504 16.8826H54.2024C53.9062 17.0307 53.7581 17.0307 53.4619 17.1788C52.5733 17.7712 51.8329 18.5117 51.5367 19.4002C51.0924 20.2888 50.9443 21.1773 50.6481 22.0659C50.3519 22.9545 50.2038 23.843 49.9076 24.5835C49.4633 26.2125 49.0191 27.6935 48.7229 29.0263C48.4267 30.3592 48.1305 31.3958 47.9824 32.2844C47.8343 33.0249 47.6862 33.4691 47.6862 33.4691C47.6862 33.6172 47.6862 33.7653 47.8343 33.7653C47.8343 33.9134 47.9824 33.9134 47.9824 33.7653Z" fill="#787878"/>
</g>
<g opacity="0.5">
<path d="M37.1716 78.4896C37.1716 78.4896 37.0235 78.4896 36.7273 78.6377C36.5792 78.6377 36.4311 78.6377 36.1349 78.7858C35.9868 78.7858 35.6907 78.7858 35.3945 78.7858C34.8021 78.7858 34.0616 78.7858 33.3211 78.4896C32.5807 78.3415 31.544 78.0453 30.8035 77.453C30.3593 77.1568 29.915 76.8606 29.6188 76.5644C29.3226 76.2682 28.8783 75.8239 28.7302 75.3796V75.2316V75.0835C28.7302 74.9354 28.5821 74.7873 28.5821 74.6392C28.5821 74.343 28.434 74.1949 28.434 73.8987C28.434 73.3063 28.434 72.8621 28.434 72.2697C28.5821 71.233 28.7302 70.0483 29.0264 68.8635C29.3226 67.6788 29.7669 66.494 30.0631 65.4574C30.2112 64.865 30.5074 64.2726 30.6555 63.6802C30.8035 63.0879 30.9516 62.4955 31.0997 61.9031C31.3959 60.7184 31.6921 59.5336 31.6921 58.3488C31.8402 57.1641 31.9883 55.9794 31.8402 54.9427C31.8402 54.6465 31.8402 54.3503 31.8402 54.2022C31.8402 53.906 31.8402 53.6099 31.6921 53.4618C31.544 52.8694 31.544 52.4251 31.3959 51.9808C31.3959 51.6846 31.2478 51.5365 31.2478 51.2404C31.0997 50.9442 31.0997 50.7961 30.9516 50.648C30.8035 50.2037 30.5074 49.9075 30.3593 49.4632C30.2112 49.0189 29.915 48.7228 29.6188 48.4266C29.4707 48.1304 29.1745 47.8342 29.0264 47.6861C28.5821 47.2418 28.2859 46.9456 27.9898 46.6494C27.6936 46.5013 27.5455 46.3533 27.5455 46.3533C27.3974 46.2052 27.2493 46.2052 27.2493 46.3533C27.1012 46.5014 27.1012 46.5013 27.2493 46.6494C27.2493 46.6494 27.3974 46.7975 27.5455 46.9456C27.8417 47.0937 28.1379 47.538 28.434 47.9823C28.5821 48.2785 28.8783 48.4266 29.0264 48.7227C29.1745 49.0189 29.4707 49.3151 29.6188 49.6113C29.7669 49.9075 29.915 50.3518 30.0631 50.7961C30.0631 50.9442 30.2112 51.2403 30.2112 51.3884C30.2112 51.5365 30.3593 51.8327 30.3593 51.9808C30.5074 52.4251 30.5074 52.8694 30.6555 53.3137C30.6555 53.6099 30.6555 53.7579 30.6555 54.0541C30.6555 54.3503 30.6555 54.4984 30.6555 54.7946C30.6555 55.8313 30.5074 56.8679 30.3593 58.0527C30.2112 59.2374 29.915 60.2741 29.6188 61.4588C29.4707 62.0512 29.3226 62.6436 29.1745 63.2359C29.0264 63.8283 28.8783 64.4207 28.5821 65.0131C27.8417 67.3826 26.9531 69.7521 26.9531 72.1216C26.9531 72.714 26.9531 73.3063 27.1012 73.8987C27.1012 74.1949 27.2493 74.4911 27.2493 74.7873C27.2493 74.9354 27.3974 75.0835 27.3974 75.2316L27.5455 75.3796V75.5277V75.6758C27.8417 76.2682 28.2859 76.7125 28.7302 77.1568C29.1745 77.6011 29.7669 77.8972 30.2112 78.1934C31.2478 78.7858 32.2845 78.9339 33.173 79.082C34.0616 79.2301 34.8021 79.2301 35.5425 79.2301C35.8387 79.2301 36.1349 79.2301 36.4311 79.082C36.7273 79.082 36.8754 78.9339 37.0235 78.9339C37.3197 78.7858 37.4678 78.7858 37.4678 78.7858C37.6159 78.7858 37.6159 78.6377 37.6159 78.4896C37.4678 78.4896 37.3197 78.4896 37.1716 78.4896Z" fill="#787878"/>
</g>
<path d="M30.6555 41.9104C26.6569 43.8357 23.5469 45.6128 23.8431 45.909C24.1393 46.2052 27.5455 45.0204 31.544 43.2433C35.5425 41.3181 38.6525 39.5409 38.3563 39.2448C38.0602 38.8005 34.654 39.9852 30.6555 41.9104Z" fill="#F4E698"/>
<path d="M30.6555 41.9104C26.6569 43.8357 23.5469 45.6128 23.8431 45.909C24.1393 46.2052 27.5455 45.0204 31.544 43.2433C35.5425 41.3181 38.6525 39.5409 38.3563 39.2448C38.0602 38.8005 34.654 39.9852 30.6555 41.9104Z" fill="#F4E698"/>
<path d="M27.8417 59.3856C27.5455 60.7185 28.434 62.0513 29.915 62.3475C31.3959 62.7918 32.8769 62.0513 33.173 60.7185C33.4692 59.3856 32.5807 58.0528 31.0997 57.7566C29.6188 57.3123 28.1378 58.0528 27.8417 59.3856Z" fill="#EDE35F"/>
<path d="M29.3226 58.6451C29.1745 58.7932 29.0264 59.0894 28.8783 59.3856C28.5821 60.2742 29.3226 61.3108 30.3592 61.607C30.9516 61.7551 31.544 61.607 31.9883 61.4589C31.544 61.9032 30.8035 62.1994 29.9149 61.9032C28.8783 61.607 28.1378 60.5704 28.434 59.6818C28.5821 59.2375 28.8783 58.7932 29.3226 58.6451Z" fill="#787878"/>
<path d="M26.3607 64.7169C26.0645 66.0498 26.9531 67.3826 28.434 67.8269C29.915 68.2712 31.3959 67.5307 31.8402 66.1979C32.1364 64.865 31.2478 63.5322 29.7669 63.0879C28.1379 62.6436 26.6569 63.3841 26.3607 64.7169Z" fill="#EDE35F"/>
<path d="M27.9897 77.1568C27.6936 78.1934 28.434 79.3782 29.7669 79.6743C30.9516 79.9705 32.2845 79.3781 32.5806 78.3415C32.8768 77.3048 32.1364 76.1201 30.8035 75.8239C29.4707 75.3796 28.2859 75.972 27.9897 77.1568Z" fill="#EDE35F"/>
<path d="M77.305 25.6202C77.4531 25.4721 77.4531 25.1759 77.4531 25.0278C75.9722 24.1393 74.1951 21.9179 71.6775 21.7698C70.7889 21.7698 69.7522 22.066 68.8637 21.7698C68.7156 22.2141 68.5675 23.5469 68.4194 24.1393C70.0484 24.2874 71.0851 25.1759 72.7141 25.4721C73.4546 25.6202 77.305 25.6202 77.305 25.6202Z" fill="#F4E698"/>
<path d="M77.305 25.6202C77.4531 25.4721 77.4531 25.1759 77.4531 25.0278C75.9722 24.1393 74.1951 21.9179 71.6775 21.7698C70.7889 21.7698 69.7522 22.066 68.8637 21.7698C68.7156 22.2141 68.5675 23.5469 68.4194 24.1393C70.0484 24.2874 71.0851 25.1759 72.7141 25.4721C73.4546 25.6202 77.305 25.6202 77.305 25.6202Z" fill="#F4E698"/>
<path d="M26.3607 67.6787L28.8783 68.4192C29.6188 68.5672 30.3592 68.2711 30.5073 67.6787L30.063 67.5306C29.9149 67.9749 29.4707 68.123 29.0264 67.9749L26.5088 67.2344C26.0645 67.0863 25.7683 66.642 25.7683 66.3458L28.1378 57.4602C28.2859 57.0159 28.7302 56.8678 29.1745 57.0159L31.6921 57.7564C32.1364 57.9045 32.4325 58.3488 32.4325 58.645L32.8768 58.7931C33.0249 58.2007 32.5806 57.6083 31.8402 57.4602L29.3226 56.7197C28.5821 56.5717 27.8416 56.8678 27.6935 57.4602L25.324 66.3458C25.176 66.9382 25.6202 67.5306 26.3607 67.6787Z" fill="#EDE35F"/>
<path d="M47.0939 26.6569V26.805V26.6569L48.871 27.1011L48.7229 27.5454L47.39 27.1011L44.8724 36.4311L46.2053 36.8753V37.1715L44.8724 36.8753L42.5029 45.761L43.8358 46.2052L43.6877 46.5014L42.3549 46.2052L40.4296 53.4619L41.6144 53.9061L41.4663 54.2023L40.2815 53.9061L38.3563 60.8665L39.5411 61.1627V61.607L38.3563 61.1627L36.283 68.8636L35.8387 68.7155L37.912 61.1627V60.7184H38.0601L39.8373 53.758L39.9853 53.4619L47.0939 26.6569Z" fill="#EDE35F"/>
<path d="M35.8387 68.8636L37.6159 69.3079V68.8636L35.9868 68.4193L35.8387 68.8636Z" fill="#EDE35F"/>
<path d="M39.2448 53.3136C38.9486 54.2022 39.2448 54.9427 39.6891 55.0908C40.1334 55.2389 40.8739 54.6465 41.022 53.7579C41.3181 52.8694 41.022 52.1289 40.5777 51.9808C40.1334 51.8327 39.541 52.4251 39.2448 53.3136Z" fill="#EDE35F"/>
<path d="M41.3182 45.7609C41.022 46.6495 41.3182 47.39 41.7625 47.5381C42.2067 47.6861 42.9472 47.0938 43.0953 46.2052C43.3915 45.3166 43.0953 44.5762 42.651 44.4281C42.2068 44.28 41.6144 44.8723 41.3182 45.7609Z" fill="#EDE35F"/>
<path d="M42.7991 46.2052C42.9472 45.4647 42.7991 44.8723 42.5029 44.7242H42.651C43.0953 44.8723 43.2434 45.4647 42.9472 46.2052C42.7991 46.9457 42.2067 47.3899 41.9106 47.3899C42.2067 47.2418 42.651 46.7976 42.7991 46.2052Z" fill="#787878"/>
<path d="M40.5777 53.61C40.7258 52.8695 40.5777 52.2771 40.2815 52.129H40.4296C40.8739 52.2771 41.022 52.8695 40.8739 53.61C40.7258 54.3504 40.1334 54.7947 39.6891 54.6466C39.6891 54.6466 39.6891 54.6466 39.541 54.6466C40.1334 54.7947 40.4296 54.3504 40.5777 53.61Z" fill="#787878"/>
<path d="M37.3197 60.7184C37.0235 61.607 37.3197 62.3475 37.7639 62.4956C38.2082 62.6436 38.9487 62.0513 39.0968 61.1627C39.393 60.2742 39.0968 59.5337 38.6525 59.3856C38.0601 59.2375 37.4678 59.8299 37.3197 60.7184Z" fill="#EDE35F"/>
<path d="M27.6936 63.9766C27.5455 64.1247 27.3974 64.4208 27.2493 64.717C26.9531 65.6056 27.6936 66.6423 28.7302 66.9384C29.3226 67.0865 29.915 67.0865 30.3593 66.7904C29.915 67.2346 29.1745 67.5308 28.2859 67.2346C27.2493 66.9384 26.5088 65.9018 26.805 65.0132C26.9531 64.5689 27.2493 64.1247 27.6936 63.9766Z" fill="#787878"/>
<path d="M29.1745 76.2683C29.0264 76.4164 28.8783 76.5645 28.8783 76.8607C28.5821 77.7492 29.3226 78.4897 30.2112 78.7859C30.8035 78.934 31.2478 78.7859 31.6921 78.6378C31.2478 79.0821 30.6554 79.2302 29.915 79.0821C29.0264 78.7859 28.434 77.8974 28.5821 77.1569C28.5821 76.7126 28.8783 76.5645 29.1745 76.2683Z" fill="#787878"/>
<path d="M38.6525 61.1627C38.8006 60.4222 38.6525 59.8299 38.3563 59.6818H38.5044C38.9487 59.8299 39.0968 60.4222 38.8006 61.1627C38.6525 61.9032 38.0601 62.3475 37.7639 62.3475C37.7639 62.3475 37.7639 62.3475 37.6158 62.3475C38.0601 62.1994 38.5044 61.7551 38.6525 61.1627Z" fill="#787878"/>
<g opacity="0.5">
<path d="M69.1598 22.5103C69.1598 22.5103 69.6041 22.5103 70.3446 22.5103C70.4927 22.5103 70.4927 22.5103 70.6407 22.5103C70.7888 22.5103 70.7889 22.5103 70.937 22.5103C71.085 22.5103 71.3812 22.5103 71.5293 22.6584C71.6774 22.6584 71.6774 22.6584 71.8255 22.6584C71.9736 22.6584 71.9736 22.6584 72.1217 22.8065C72.4179 22.8065 72.566 22.9546 72.8622 22.9546C73.0102 23.1027 73.3064 23.1027 73.4545 23.2508C73.6026 23.3989 73.8988 23.3989 74.0469 23.5469C74.195 23.695 74.4912 23.6951 74.6393 23.8432C74.7874 23.9912 74.9355 23.9912 75.0836 24.1393C75.3797 24.2874 75.6759 24.5836 75.824 24.5836C75.9721 24.7317 76.1202 24.7317 76.1202 24.7317H76.2683V24.5836C76.2683 24.5836 75.9721 24.2874 75.3798 23.8432C75.2317 23.6951 75.0836 23.5469 74.9355 23.5469C74.7874 23.3989 74.6393 23.2508 74.3431 23.1027C74.195 22.9546 73.8988 22.8065 73.7507 22.8065C73.4545 22.6584 73.3064 22.6584 73.0103 22.5103C72.7141 22.3622 72.566 22.3622 72.2698 22.3622C72.1217 22.3622 71.9736 22.3622 71.9736 22.2141C71.8255 22.2141 71.6774 22.2141 71.6774 22.2141C71.3812 22.2141 71.2331 22.2141 70.937 22.2141C70.7889 22.2141 70.7888 22.2141 70.6407 22.2141C70.4927 22.2141 70.4927 22.2141 70.3446 22.2141C69.6041 22.2141 69.1598 22.3622 69.1598 22.3622C69.0117 22.3622 69.0117 22.3622 69.1598 22.5103C69.0117 22.5103 69.0117 22.5103 69.1598 22.5103Z" fill="#787878"/>
</g>
</svg>
